<?xml version="1.0" encoding="UTF-8" standalone="no"?>
<!-- Generator: Adobe Illustrator 19.0.0, SVG Export Plug-In . SVG Version: 6.00 Build 0)  -->

<svg
   xmlns:dc="http://purl.org/dc/elements/1.1/"
   xmlns:cc="http://creativecommons.org/ns#"
   xmlns:rdf="http://www.w3.org/1999/02/22-rdf-syntax-ns#"
   xmlns:svg="http://www.w3.org/2000/svg"
   xmlns="http://www.w3.org/2000/svg"
   xmlns:sodipodi="http://sodipodi.sourceforge.net/DTD/sodipodi-0.dtd"
   xmlns:inkscape="http://www.inkscape.org/namespaces/inkscape"
   version="1.1"
   id="Capa_1"
   x="0px"
   y="0px"
   viewBox="0 0 491.52 491.52"
   style="enable-background:new 0 0 491.52 491.52;"
   xml:space="preserve"
   sodipodi:docname="hosp-icon.svg"
   inkscape:version="0.92.5 (2060ec1f9f, 2020-04-08)"><metadata
   id="metadata79"><rdf:RDF><cc:Work
       rdf:about=""><dc:format>image/svg+xml</dc:format><dc:type
         rdf:resource="http://purl.org/dc/dcmitype/StillImage" /><dc:title></dc:title></cc:Work></rdf:RDF></metadata><defs
   id="defs77" /><sodipodi:namedview
   pagecolor="#ffffff"
   bordercolor="#666666"
   borderopacity="1"
   objecttolerance="10"
   gridtolerance="10"
   guidetolerance="10"
   inkscape:pageopacity="0"
   inkscape:pageshadow="2"
   inkscape:window-width="640"
   inkscape:window-height="480"
   id="namedview75"
   showgrid="false"
   inkscape:zoom="0.48014324"
   inkscape:cx="245.75999"
   inkscape:cy="245.75999"
   inkscape:window-x="0"
   inkscape:window-y="0"
   inkscape:window-maximized="0"
   inkscape:current-layer="Capa_1" />
<circle
   style="fill:#E05B49;"
   cx="245.76"
   cy="245.76"
   r="245.76"
   id="circle2" />
<path
   style="opacity:0.1;enable-background:new    ;"
   d="M312.166,104.946H179.354c-5.99,0-10.906,4.915-10.906,10.957v69.529  h-52.582c-5.99,0-10.906,4.915-10.906,10.956v190.158l101.875,101.875c12.682,2.019,25.675,3.099,38.925,3.099  c124.868,0,227.91-93.148,243.615-213.734L320.413,108.824C318.407,106.471,315.468,104.946,312.166,104.946z"
   id="path4" />
<path
   style="fill:#64798A;"
   d="M375.629,185.435H115.891c-6.037,0-10.931,4.894-10.931,10.93V386.56h281.6V196.365  C386.56,190.329,381.666,185.435,375.629,185.435z"
   id="path6" />
<g
   id="g12">
	<path
   style="fill:#EBF0F3;"
   d="M323.074,386.56H168.446V115.891c0-6.037,4.894-10.931,10.931-10.931h132.766   c6.037,0,10.931,4.894,10.931,10.931V386.56z"
   id="path8" />
	<rect
   x="333.952"
   y="208.671"
   style="fill:#EBF0F3;"
   width="42.829"
   height="58.931"
   id="rect10" />
</g>
<rect
   x="339.2"
   y="213.78"
   style="fill:#27A2DB;"
   width="32.399"
   height="48.691"
   id="rect14" />
<rect
   x="333.952"
   y="304.415"
   style="fill:#EBF0F3;"
   width="42.829"
   height="58.931"
   id="rect16" />
<rect
   x="339.2"
   y="309.504"
   style="fill:#27A2DB;"
   width="32.399"
   height="48.691"
   id="rect18" />
<rect
   x="114.714"
   y="208.66"
   style="fill:#EBF0F3;"
   width="42.829"
   height="58.931"
   id="rect20" />
<rect
   x="119.926"
   y="213.78"
   style="fill:#27A2DB;"
   width="32.399"
   height="48.691"
   id="rect22" />
<rect
   x="114.714"
   y="304.404"
   style="fill:#EBF0F3;"
   width="42.829"
   height="58.931"
   id="rect24" />
<rect
   x="119.926"
   y="309.504"
   style="fill:#27A2DB;"
   width="32.399"
   height="48.691"
   id="rect26" />
<rect
   x="183.281"
   y="204.421"
   style="fill:#E1E6E9;"
   width="42.829"
   height="43.571"
   id="rect28" />
<rect
   x="188.483"
   y="209.541"
   style="fill:#27A2DB;"
   width="32.399"
   height="33.331"
   id="rect30" />
<rect
   x="265.405"
   y="204.416"
   style="fill:#E1E6E9;"
   width="42.829"
   height="43.571"
   id="rect32" />
<rect
   x="270.638"
   y="209.541"
   style="fill:#27A2DB;"
   width="32.399"
   height="33.331"
   id="rect34" />
<polygon
   style="fill:#E56353;"
   points="274.582,143.503 254.705,143.503 254.705,123.626 236.815,123.626 236.815,143.503   216.938,143.503 216.938,161.392 236.815,161.392 236.815,181.27 254.705,181.27 254.705,161.392 274.582,161.392 "
   id="polygon36" />
<path
   style="fill:#D5D6DB;"
   d="M284.277,271.891h-77.032c-2.618,0-4.741,2.259-4.741,5.047V386.56h86.515V276.938  C289.018,274.15,286.895,271.891,284.277,271.891z"
   id="path38" />
<rect
   x="208.22"
   y="277.811"
   style="fill:#64798A;"
   width="75.075"
   height="108.723"
   id="rect40" />
<rect
   x="243.441"
   y="277.811"
   style="fill:#3A556A;"
   width="4.639"
   height="108.723"
   id="rect42" />
<g
   id="g44">
</g>
<g
   id="g46">
</g>
<g
   id="g48">
</g>
<g
   id="g50">
</g>
<g
   id="g52">
</g>
<g
   id="g54">
</g>
<g
   id="g56">
</g>
<g
   id="g58">
</g>
<g
   id="g60">
</g>
<g
   id="g62">
</g>
<g
   id="g64">
</g>
<g
   id="g66">
</g>
<g
   id="g68">
</g>
<g
   id="g70">
</g>
<g
   id="g72">
</g>
</svg>